<svg xmlns="http://www.w3.org/2000/svg" width="128" height="128" fill="none">
  <path fill="#000" fill-rule="evenodd" d="M60.73 27.368c11.34-11.34 29.726-11.34 41.066 0 11.34 11.34 11.34 29.726 0 41.066L86.468 83.762a2 2 0 0 1-2.629.175l-12.024-9.19a2 2 0 0 1-.2-3.003L88.362 55c3.92-3.92 3.92-10.276 0-14.196s-10.276-3.92-14.196 0L38.802 76.165c-3.92 3.92-3.92 10.276 0 14.196s10.276 3.92 14.196 0l10.094-10.094a2 2 0 0 1 3.105.345l8.221 12.992a2 2 0 0 1-.276 2.483l-7.709 7.709c-11.34 11.341-29.726 11.341-41.066 0-11.34-11.34-11.34-29.726 0-41.066L60.73 27.368Z" clip-rule="evenodd"/>
  <path fill="#000" fill-rule="evenodd" d="M101 10H27c-9.389 0-17 7.611-17 17v74c0 9.389 7.611 17 17 17h74c9.389 0 17-7.611 17-17V27c0-9.389-7.611-17-17-17ZM27 0C12.088 0 0 12.088 0 27v74c0 14.912 12.088 27 27 27h74c14.912 0 27-12.088 27-27V27c0-14.912-12.088-27-27-27H27Z" clip-rule="evenodd"/>
</svg>
